<?xml version="1.0" encoding="utf-8"?>
<!-- Generator: Adobe Illustrator 16.0.0, SVG Export Plug-In . SVG Version: 6.00 Build 0)  -->
<!DOCTYPE svg PUBLIC "-//W3C//DTD SVG 1.1//EN" "http://www.w3.org/Graphics/SVG/1.1/DTD/svg11.dtd">
<svg version="1.1" id="Layer_1" xmlns="http://www.w3.org/2000/svg" xmlns:xlink="http://www.w3.org/1999/xlink" x="0px" y="0px"
	 width="48px" height="48px" viewBox="0 0 48 48" enable-background="new 0 0 48 48" xml:space="preserve">
<path fill="none" d="M48,0v48H0V0H48z"/>
<path d="M46,8.75v20h-4v4h8c2.2,0,3.98-1.8,3.98-4l0.02-20c0-2.2-1.8-4-4-4h-8v4H46z"/>
<polygon points="100.32,30.82 109.5,40 118.68,30.82 115.84,28 109.5,34.34 103.16,28 "/>
<polygon points="103.16,20 109.5,13.66 115.84,20 118.68,17.18 109.5,8 100.32,17.18 "/>
<path d="M2,28.75v-20h4v-4h-8c-2.2,0-4,1.8-4,4v20c0,2.2,1.8,4,4,4h8v-4H2z"/>
<text transform="matrix(1 0 0 1 7.4102 21.5)" font-family="'Roboto-Black'" font-size="16">WEB</text>
<text transform="matrix(1 0 0 1 9.0664 38.25)" font-family="'Roboto-Black'" font-size="16">DEV</text>
</svg>
