<?xml version="1.0" encoding="utf-8"?>
<!-- Generator: Adobe Illustrator 16.0.0, SVG Export Plug-In . SVG Version: 6.00 Build 0)  -->
<!DOCTYPE svg PUBLIC "-//W3C//DTD SVG 1.1//EN" "http://www.w3.org/Graphics/SVG/1.1/DTD/svg11.dtd">
<svg version="1.1" id="Layer_1" xmlns="http://www.w3.org/2000/svg" xmlns:xlink="http://www.w3.org/1999/xlink" x="0px" y="0px"
	 width="36px" height="36px" viewBox="0 0 36 36" enable-background="new 0 0 36 36" xml:space="preserve">
<path fill="none" d="M0,0h36v36H0V0z"/>
<path fill="#B82601" d="M5.85,18c0-2.565,2.085-4.65,4.65-4.65h6V10.5h-6C6.36,10.5,3,13.86,3,18c0,4.141,3.36,7.5,7.5,7.5h6v-2.85
	h-6C7.935,22.65,5.85,20.564,5.85,18z M12,19.5h12v-3H12V19.5z M25.5,10.5h-6v2.85h6c2.564,0,4.65,2.085,4.65,4.65
	c0,2.564-2.086,4.65-4.65,4.65h-6v2.85h6c4.141,0,7.5-3.359,7.5-7.5C33,13.86,29.641,10.5,25.5,10.5z"/>
</svg>
