<?xml version="1.0" encoding="utf-8"?>
<!-- Generator: Adobe Illustrator 16.0.0, SVG Export Plug-In . SVG Version: 6.00 Build 0)  -->
<!DOCTYPE svg PUBLIC "-//W3C//DTD SVG 1.1//EN" "http://www.w3.org/Graphics/SVG/1.1/DTD/svg11.dtd">
<svg version="1.1" id="Layer_1" xmlns="http://www.w3.org/2000/svg" xmlns:xlink="http://www.w3.org/1999/xlink" x="0px" y="0px"
	 width="11.304px" height="293.765px" viewBox="0 0 11.304 293.765" enable-background="new 0 0 11.304 293.765"
	 xml:space="preserve">
<path id="path4446" fill="#969696" stroke="#000000" stroke-miterlimit="10" d="M6.768,14.695c2.513,0,4.536-2.021,4.536-4.534
	V4.536C11.304,2.023,9.281,0,6.768,0H4.536C2.023,0,0,2.023,0,4.536v5.625c0,2.512,2.023,4.534,4.536,4.534H6.768z M6.826,11.869
	H4.509c-0.932,0-1.683-0.749-1.683-1.681V4.509c0-0.933,0.751-1.684,1.683-1.684h2.317c0.933,0,1.684,0.751,1.684,1.684v5.678
	C8.51,11.12,7.759,11.869,6.826,11.869z"/>
<path id="path4446_1_" fill="#969696" stroke="#000000" stroke-miterlimit="10" d="M6.768,34.195c2.513,0,4.536-2.021,4.536-4.534
	v-5.625c0-2.513-2.023-4.536-4.536-4.536H4.536C2.023,19.5,0,21.523,0,24.036v5.625c0,2.512,2.023,4.534,4.536,4.534H6.768z
	 M6.826,31.369H4.509c-0.932,0-1.683-0.749-1.683-1.681v-5.678c0-0.933,0.751-1.684,1.683-1.684h2.317
	c0.933,0,1.684,0.751,1.684,1.684v5.678C8.51,30.62,7.759,31.369,6.826,31.369z"/>
<path id="path4446_2_" fill="#969696" stroke="#000000" stroke-miterlimit="10" d="M6.768,53.493c2.513,0,4.536-2.021,4.536-4.534
	v-5.625c0-2.513-2.023-4.536-4.536-4.536H4.536C2.023,38.798,0,40.821,0,43.333v5.625c0,2.512,2.023,4.534,4.536,4.534H6.768z
	 M6.826,50.667H4.509c-0.932,0-1.683-0.749-1.683-1.681v-5.678c0-0.933,0.751-1.684,1.683-1.684h2.317
	c0.933,0,1.684,0.751,1.684,1.684v5.678C8.51,49.917,7.759,50.667,6.826,50.667z"/>
<path id="rect4448" fill="#969696" stroke="#000000" stroke-miterlimit="10" d="M5.665,23.391H5.639
	c-0.929,0-1.683-0.753-1.683-1.683v-11.33c0-0.929,0.753-1.683,1.683-1.683h0.025c0.929,0,1.683,0.753,1.683,1.683v11.33
	C7.347,22.637,6.594,23.391,5.665,23.391z"/>
<path id="rect4448_1_" fill="#969696" stroke="#000000" stroke-miterlimit="10" d="M5.665,42.891H5.639
	c-0.929,0-1.683-0.753-1.683-1.683v-11.33c0-0.929,0.753-1.683,1.683-1.683h0.025c0.929,0,1.683,0.753,1.683,1.683v11.33
	C7.347,42.137,6.594,42.891,5.665,42.891z"/>
<path id="path4446_5_" fill="#969696" stroke="#000000" stroke-miterlimit="10" d="M6.768,72.84c2.513,0,4.536-2.021,4.536-4.534
	v-5.625c0-2.513-2.023-4.536-4.536-4.536H4.536C2.023,58.145,0,60.168,0,62.681v5.625c0,2.512,2.023,4.534,4.536,4.534H6.768z
	 M6.826,70.014H4.509c-0.932,0-1.683-0.749-1.683-1.681v-5.678c0-0.933,0.751-1.684,1.683-1.684h2.317
	c0.933,0,1.684,0.751,1.684,1.684v5.678C8.51,69.265,7.759,70.014,6.826,70.014z"/>
<path id="path4446_4_" fill="#969696" stroke="#000000" stroke-miterlimit="10" d="M6.768,92.34c2.513,0,4.536-2.021,4.536-4.534
	v-5.625c0-2.513-2.023-4.536-4.536-4.536H4.536C2.023,77.645,0,79.668,0,82.181v5.625c0,2.512,2.023,4.534,4.536,4.534H6.768z
	 M6.826,89.514H4.509c-0.932,0-1.683-0.749-1.683-1.681v-5.678c0-0.933,0.751-1.684,1.683-1.684h2.317
	c0.933,0,1.684,0.751,1.684,1.684v5.678C8.51,88.765,7.759,89.514,6.826,89.514z"/>
<path id="path4446_3_" fill="#969696" stroke="#000000" stroke-miterlimit="10" d="M6.768,111.638c2.513,0,4.536-2.021,4.536-4.534
	v-5.625c0-2.513-2.023-4.536-4.536-4.536H4.536C2.023,96.943,0,98.966,0,101.479v5.625c0,2.512,2.023,4.534,4.536,4.534H6.768z
	 M6.826,108.812H4.509c-0.932,0-1.683-0.749-1.683-1.681v-5.678c0-0.933,0.751-1.684,1.683-1.684h2.317
	c0.933,0,1.684,0.751,1.684,1.684v5.678C8.51,108.063,7.759,108.812,6.826,108.812z"/>
<path id="rect4448_4_" fill="#969696" stroke="#000000" stroke-miterlimit="10" d="M5.665,81.536H5.639
	c-0.929,0-1.683-0.753-1.683-1.683v-11.33c0-0.929,0.753-1.683,1.683-1.683h0.025c0.929,0,1.683,0.753,1.683,1.683v11.33
	C7.347,80.782,6.594,81.536,5.665,81.536z"/>
<path id="rect4448_3_" fill="#969696" stroke="#000000" stroke-miterlimit="10" d="M5.665,101.036H5.639
	c-0.929,0-1.683-0.753-1.683-1.683v-11.33c0-0.929,0.753-1.683,1.683-1.683h0.025c0.929,0,1.683,0.753,1.683,1.683v11.33
	C7.347,100.282,6.594,101.036,5.665,101.036z"/>
<path id="path4446_8_" fill="#969696" stroke="#000000" stroke-miterlimit="10" d="M6.768,130.237c2.513,0,4.536-2.021,4.536-4.534
	v-5.625c0-2.513-2.023-4.536-4.536-4.536H4.536c-2.513,0-4.536,2.023-4.536,4.536v5.625c0,2.512,2.023,4.534,4.536,4.534H6.768z
	 M6.826,127.411H4.509c-0.932,0-1.683-0.749-1.683-1.681v-5.678c0-0.933,0.751-1.684,1.683-1.684h2.317
	c0.933,0,1.684,0.751,1.684,1.684v5.678C8.51,126.662,7.759,127.411,6.826,127.411z"/>
<path id="path4446_7_" fill="#969696" stroke="#000000" stroke-miterlimit="10" d="M6.768,149.737c2.513,0,4.536-2.021,4.536-4.534
	v-5.625c0-2.513-2.023-4.536-4.536-4.536H4.536c-2.513,0-4.536,2.023-4.536,4.536v5.625c0,2.512,2.023,4.534,4.536,4.534H6.768z
	 M6.826,146.911H4.509c-0.932,0-1.683-0.749-1.683-1.681v-5.678c0-0.933,0.751-1.684,1.683-1.684h2.317
	c0.933,0,1.684,0.751,1.684,1.684v5.678C8.51,146.162,7.759,146.911,6.826,146.911z"/>
<path id="path4446_6_" fill="#969696" stroke="#000000" stroke-miterlimit="10" d="M6.768,169.035c2.513,0,4.536-2.021,4.536-4.534
	v-5.625c0-2.513-2.023-4.536-4.536-4.536H4.536c-2.513,0-4.536,2.023-4.536,4.536v5.625c0,2.512,2.023,4.534,4.536,4.534H6.768z
	 M6.826,166.208H4.509c-0.932,0-1.683-0.749-1.683-1.681v-5.678c0-0.933,0.751-1.684,1.683-1.684h2.317
	c0.933,0,1.684,0.751,1.684,1.684v5.678C8.51,165.459,7.759,166.208,6.826,166.208z"/>
<path id="rect4448_7_" fill="#969696" stroke="#000000" stroke-miterlimit="10" d="M5.665,138.933H5.639
	c-0.929,0-1.683-0.753-1.683-1.683v-11.33c0-0.929,0.753-1.683,1.683-1.683h0.025c0.929,0,1.683,0.753,1.683,1.683v11.33
	C7.347,138.179,6.594,138.933,5.665,138.933z"/>
<path id="rect4448_6_" fill="#969696" stroke="#000000" stroke-miterlimit="10" d="M5.665,158.433H5.639
	c-0.929,0-1.683-0.753-1.683-1.683v-11.33c0-0.929,0.753-1.683,1.683-1.683h0.025c0.929,0,1.683,0.753,1.683,1.683v11.33
	C7.347,157.679,6.594,158.433,5.665,158.433z"/>
<path id="rect4448_2_" fill="#969696" stroke="#000000" stroke-miterlimit="10" d="M5.665,62.188H5.639
	c-0.929,0-1.683-0.753-1.683-1.683v-11.33c0-0.929,0.753-1.683,1.683-1.683h0.025c0.929,0,1.683,0.753,1.683,1.683v11.33
	C7.347,61.435,6.594,62.188,5.665,62.188z"/>
<path id="rect4448_5_" fill="#969696" stroke="#000000" stroke-miterlimit="10" d="M5.665,120.333H5.639
	c-0.929,0-1.683-0.753-1.683-1.683v-11.33c0-0.929,0.753-1.683,1.683-1.683h0.025c0.929,0,1.683,0.753,1.683,1.683v11.33
	C7.347,119.58,6.594,120.333,5.665,120.333z"/>
<path id="path4446_12_" fill="#969696" stroke="#000000" stroke-miterlimit="10" d="M6.768,188.282c2.513,0,4.536-2.021,4.536-4.534
	v-5.625c0-2.513-2.023-4.536-4.536-4.536H4.536c-2.513,0-4.536,2.023-4.536,4.536v5.625c0,2.512,2.023,4.534,4.536,4.534H6.768z
	 M6.826,185.456H4.509c-0.932,0-1.683-0.749-1.683-1.681v-5.678c0-0.933,0.751-1.684,1.683-1.684h2.317
	c0.933,0,1.684,0.751,1.684,1.684v5.678C8.51,184.707,7.759,185.456,6.826,185.456z"/>
<path id="path4446_11_" fill="#969696" stroke="#000000" stroke-miterlimit="10" d="M6.768,206.881c2.513,0,4.536-2.021,4.536-4.534
	v-5.625c0-2.513-2.023-4.536-4.536-4.536H4.536c-2.513,0-4.536,2.023-4.536,4.536v5.625c0,2.512,2.023,4.534,4.536,4.534H6.768z
	 M6.826,204.055H4.509c-0.932,0-1.683-0.749-1.683-1.681v-5.678c0-0.933,0.751-1.684,1.683-1.684h2.317
	c0.933,0,1.684,0.751,1.684,1.684v5.678C8.51,203.306,7.759,204.055,6.826,204.055z"/>
<path id="path4446_10_" fill="#969696" stroke="#000000" stroke-miterlimit="10" d="M6.768,226.381c2.513,0,4.536-2.021,4.536-4.534
	v-5.625c0-2.513-2.023-4.536-4.536-4.536H4.536c-2.513,0-4.536,2.023-4.536,4.536v5.625c0,2.512,2.023,4.534,4.536,4.534H6.768z
	 M6.826,223.555H4.509c-0.932,0-1.683-0.749-1.683-1.681v-5.678c0-0.933,0.751-1.684,1.683-1.684h2.317
	c0.933,0,1.684,0.751,1.684,1.684v5.678C8.51,222.806,7.759,223.555,6.826,223.555z"/>
<path id="path4446_9_" fill="#969696" stroke="#000000" stroke-miterlimit="10" d="M6.768,245.679c2.513,0,4.536-2.021,4.536-4.534
	v-5.625c0-2.513-2.023-4.536-4.536-4.536H4.536c-2.513,0-4.536,2.023-4.536,4.536v5.625c0,2.512,2.023,4.534,4.536,4.534H6.768z
	 M6.826,242.853H4.509c-0.932,0-1.683-0.749-1.683-1.681v-5.678c0-0.933,0.751-1.684,1.683-1.684h2.317
	c0.933,0,1.684,0.751,1.684,1.684v5.678C8.51,242.104,7.759,242.853,6.826,242.853z"/>
<path id="rect4448_12_" fill="#969696" stroke="#000000" stroke-miterlimit="10" d="M5.665,215.577H5.639
	c-0.929,0-1.683-0.753-1.683-1.683v-11.33c0-0.929,0.753-1.683,1.683-1.683h0.025c0.929,0,1.683,0.753,1.683,1.683v11.33
	C7.347,214.823,6.594,215.577,5.665,215.577z"/>
<path id="rect4448_8_" fill="#969696" stroke="#000000" stroke-miterlimit="10" d="M5.665,177.73H5.639
	c-0.929,0-1.683-0.753-1.683-1.683v-11.33c0-0.929,0.753-1.683,1.683-1.683h0.025c0.929,0,1.683,0.753,1.683,1.683v11.33
	C7.347,176.977,6.594,177.73,5.665,177.73z"/>
<path id="rect4448_11_" fill="#969696" stroke="#000000" stroke-miterlimit="10" d="M5.665,235.077H5.639
	c-0.929,0-1.683-0.753-1.683-1.683v-11.33c0-0.929,0.753-1.683,1.683-1.683h0.025c0.929,0,1.683,0.753,1.683,1.683v11.33
	C7.347,234.323,6.594,235.077,5.665,235.077z"/>
<path id="rect4448_10_" fill="#969696" stroke="#000000" stroke-miterlimit="10" d="M5.665,196.978H5.639
	c-0.929,0-1.683-0.753-1.683-1.683v-11.33c0-0.929,0.753-1.683,1.683-1.683h0.025c0.929,0,1.683,0.753,1.683,1.683v11.33
	C7.347,196.224,6.594,196.978,5.665,196.978z"/>
<path id="rect4448_9_" fill="#969696" stroke="#000000" stroke-miterlimit="10" d="M5.665,254.375H5.639
	c-0.929,0-1.683-0.753-1.683-1.683v-11.33c0-0.929,0.753-1.683,1.683-1.683h0.025c0.929,0,1.683,0.753,1.683,1.683v11.33
	C7.347,253.621,6.594,254.375,5.665,254.375z"/>
<path id="path4446_14_" fill="#969696" stroke="#000000" stroke-miterlimit="10" d="M6.768,265.771c2.513,0,4.536-2.021,4.536-4.534
	v-5.625c0-2.513-2.023-4.536-4.536-4.536H4.536C2.023,251.077,0,253.1,0,255.612v5.625c0,2.512,2.023,4.534,4.536,4.534H6.768z
	 M6.826,262.945H4.509c-0.932,0-1.683-0.749-1.683-1.681v-5.678c0-0.933,0.751-1.684,1.683-1.684h2.317
	c0.933,0,1.684,0.751,1.684,1.684v5.678C8.51,262.196,7.759,262.945,6.826,262.945z"/>
<path id="path4446_13_" fill="#969696" stroke="#000000" stroke-miterlimit="10" d="M6.768,285.069c2.513,0,4.536-2.021,4.536-4.534
	v-5.625c0-2.513-2.023-4.536-4.536-4.536H4.536c-2.513,0-4.536,2.023-4.536,4.536v5.625c0,2.512,2.023,4.534,4.536,4.534H6.768z
	 M6.826,282.243H4.509c-0.932,0-1.683-0.749-1.683-1.681v-5.678c0-0.933,0.751-1.684,1.683-1.684h2.317
	c0.933,0,1.684,0.751,1.684,1.684v5.678C8.51,281.494,7.759,282.243,6.826,282.243z"/>
<path id="rect4448_14_" fill="#969696" stroke="#000000" stroke-miterlimit="10" d="M5.665,274.467H5.639
	c-0.929,0-1.683-0.753-1.683-1.683v-11.33c0-0.929,0.753-1.683,1.683-1.683h0.025c0.929,0,1.683,0.753,1.683,1.683v11.33
	C7.347,273.714,6.594,274.467,5.665,274.467z"/>
<path id="rect4448_13_" fill="#969696" stroke="#000000" stroke-miterlimit="10" d="M5.665,293.765H5.639
	c-0.929,0-1.683-0.753-1.683-1.683v-11.33c0-0.929,0.753-1.683,1.683-1.683h0.025c0.929,0,1.683,0.753,1.683,1.683v11.33
	C7.347,293.012,6.594,293.765,5.665,293.765z"/>
</svg>
