<?xml version="1.0" encoding="utf-8"?>
<!-- Generator: Adobe Illustrator 16.0.0, SVG Export Plug-In . SVG Version: 6.00 Build 0)  -->
<!DOCTYPE svg PUBLIC "-//W3C//DTD SVG 1.1//EN" "http://www.w3.org/Graphics/SVG/1.1/DTD/svg11.dtd">
<svg version="1.1" id="dolphin1" xmlns="http://www.w3.org/2000/svg" xmlns:xlink="http://www.w3.org/1999/xlink" x="0px" y="0px"
	 width="110.75px" height="33.833px" viewBox="0 0 110.75 33.833" enable-background="new 0 0 110.75 33.833" xml:space="preserve">
<g>
	<path fill="#3079BD" stroke="#020202" stroke-width="0.5" stroke-miterlimit="10" d="M73.988,10.525c0,0-9.177-11.591-14.713-9.829
		s3.229,6.124,1.887,9.521c0,0-0.758,1.743-2.391,2.892c-0.708,0.498-12.655,1.396-23.859,2.341
		c-8.536,0.72-18.203-2.678-18.787-3.012c0,0-4.619-4.204-7.958-3.063c-3.292,1.125-1.458,2.75-0.945,4.293
		c0.344,1.033-1.214,1.99-2.472,2.394c-0.828,0.266-3.08,0.841-3.25,1.688C0.662,21.93,14.208,17.583,15,17.5
		c1.987-0.209,13.962,3.822,20.39,5.884c4.964,1.594,16.124,8.792,24.284,9.597c9.546,0.94,25.019-7.5,25.396-7.625l13.276-3.496
		c0,0-0.135-4.203,7.381-5.756c0,0-1.874-2.655-2.034-2.945c-1.221-2.213-8.273-7.081-18.988-4.225L73.988,10.525z"/>
	<path fill="#3079BD" stroke="#020202" stroke-width="0.5" stroke-miterlimit="10" d="M105.392,16.106c0,0,6.026,2.308,5.064,4.124
		c-0.961,1.815-14.029,1.87-13.664,1.125C98.912,17.035,105.392,16.106,105.392,16.106z"/>
	<path fill="#FFFFFF" d="M105.375,20.318c0,0,4.239-0.473,4.304-0.048c0.223,1.448-12.88,1.555-12.645,1.071
		c0.213-0.435,0.582-0.881,0.582-0.881L105.375,20.318z"/>
	<path fill="#010101" d="M100.708,13.259c0.178,0.437-0.032,0.934-0.47,1.112l-0.127,0.051c-0.438,0.178-0.933-0.033-1.111-0.469
		l0,0c-0.178-0.438,0.033-0.934,0.47-1.111l0.128-0.052C100.034,12.613,100.532,12.823,100.708,13.259L100.708,13.259z"/>
	<path fill="#FFFFFF" stroke="#020202" stroke-width="0.5" stroke-miterlimit="10" d="M85,26.272c0,0-9.856,2.559-20.008,3.017
		c-6.373,0.288-14.037-0.78-19.778-1.346c0,0,7.106,4.27,16.166,5.07c2.139,0.189,4.667-0.286,7.037-0.574
		C68.416,32.439,74.307,31.717,85,26.272z"/>
	<path fill="#3079BD" stroke="#020202" stroke-width="0.5" stroke-miterlimit="10" d="M90.987,20.628
		c0,0-3.121,17.075-15.011,11.621c0,0,7.239-4.237,5.87-10.691L90.987,20.628z"/>
</g>
</svg>
