<?xml version="1.0" encoding="utf-8"?>
<!-- Generator: Adobe Illustrator 16.0.0, SVG Export Plug-In . SVG Version: 6.00 Build 0)  -->
<!DOCTYPE svg PUBLIC "-//W3C//DTD SVG 1.1//EN" "http://www.w3.org/Graphics/SVG/1.1/DTD/svg11.dtd">
<svg version="1.1" id="dolphin1" xmlns="http://www.w3.org/2000/svg" xmlns:xlink="http://www.w3.org/1999/xlink" x="0px" y="0px"
	 width="110.75px" height="33.833px" viewBox="0 0 110.75 33.833" enable-background="new 0 0 110.75 33.833" xml:space="preserve">
<g>
	<path fill="#3079BD" stroke="#020202" stroke-width="0.5" stroke-miterlimit="10" d="M73.988,10.523c0,0-9.177-11.591-14.713-9.829
		c-5.537,1.761,3.229,6.124,1.887,9.521c0,0-0.758,1.743-2.391,2.892c-0.708,0.498-12.655,1.395-23.859,2.341
		c-8.536,0.72-18.661,8.31-21.037,8.927c0,0-1.927-0.284-5.375,0.469c-4.602,1.004-1.381,3.229-6.406,4.819
		c0,0-1.41,0.84-1.671,2.145c-0.838,4.18,12.827,0.161,13.577-0.87c1.875-2.219,14.962-9.618,21.39-7.555
		c4.964,1.594,16.124,8.792,24.284,9.598c9.546,0.94,25.019-7.5,25.396-7.625l13.276-3.496c0,0-0.135-4.203,7.381-5.756
		c0,0-1.874-2.655-2.034-2.945c-1.221-2.213-8.273-7.081-18.988-4.225L73.988,10.523z"/>
	<path fill="#3079BD" stroke="#020202" stroke-width="0.5" stroke-miterlimit="10" d="M105.392,16.104c0,0,6.026,2.309,5.064,4.125
		c-0.961,1.815-14.029,1.87-13.664,1.125C98.912,17.032,105.392,16.104,105.392,16.104z"/>
	<path fill="#FFFFFF" d="M105.375,20.316c0,0,4.239-0.473,4.304-0.048c0.223,1.448-12.88,1.555-12.645,1.07
		c0.213-0.434,0.582-0.88,0.582-0.88L105.375,20.316z"/>
	<path fill="#010101" d="M100.708,13.258c0.178,0.437-0.032,0.934-0.47,1.111l-0.127,0.051c-0.438,0.178-0.933-0.033-1.111-0.47l0,0
		c-0.178-0.437,0.033-0.934,0.47-1.11l0.128-0.052C100.034,12.611,100.532,12.821,100.708,13.258L100.708,13.258z"/>
	<path fill="#FFFFFF" stroke="#020202" stroke-width="0.5" stroke-miterlimit="10" d="M85,26.271c0,0-9.856,2.559-20.008,3.017
		c-6.373,0.288-14.037-0.779-19.778-1.346c0,0,7.106,4.271,16.166,5.07c2.139,0.189,4.667-0.286,7.037-0.574
		C68.416,32.438,74.307,31.715,85,26.271z"/>
	<path fill="#3079BD" stroke="#020202" stroke-width="0.5" stroke-miterlimit="10" d="M90.987,20.627
		c0,0-3.121,17.075-15.011,11.621c0,0,7.239-4.238,5.87-10.691L90.987,20.627z"/>
</g>
</svg>
