<?xml version="1.0" encoding="utf-8"?>
<!-- Generator: Adobe Illustrator 16.0.0, SVG Export Plug-In . SVG Version: 6.00 Build 0)  -->
<!DOCTYPE svg PUBLIC "-//W3C//DTD SVG 1.1//EN" "http://www.w3.org/Graphics/SVG/1.1/DTD/svg11.dtd">
<svg version="1.1" id="dolphin1" xmlns="http://www.w3.org/2000/svg" xmlns:xlink="http://www.w3.org/1999/xlink" x="0px" y="0px"
	 width="110.75px" height="33.833px" viewBox="0 0 110.75 33.833" enable-background="new 0 0 110.75 33.833" xml:space="preserve">
<g>
	<path fill="#3079BD" stroke="#020202" stroke-width="0.5" stroke-miterlimit="10" d="M73.978,10.521c0,0-9.178-11.59-14.714-9.829
		c-5.536,1.762,3.229,6.124,1.887,9.521c0,0-0.757,1.743-2.391,2.892c-0.708,0.497-12.654,1.395-23.86,2.341
		c-8.535,0.72-16.638,1.467-19.014,2.084c0,0-2.635-2.556-6.082-1.803c-3.448,0.751-2.654,5.311-8.521,7.167
		c0,0-0.802,0.567-1.063,1.872c-0.839,4.18,15.212-0.868,15.414-1.321c0.81-1.827,13.317-2.125,19.743-0.063
		c4.966,1.593,16.124,8.792,24.286,9.598c9.544,0.94,25.017-7.5,25.395-7.626l13.277-3.496c0,0-0.136-4.202,7.381-5.755
		c0,0-1.874-2.655-2.036-2.946c-1.22-2.212-8.273-7.081-18.988-4.225L73.978,10.521z"/>
	<path fill="#3079BD" stroke="#020202" stroke-width="0.5" stroke-miterlimit="10" d="M105.382,16.103c0,0,6.026,2.309,5.064,4.125
		c-0.961,1.814-14.029,1.87-13.664,1.125C98.901,17.03,105.382,16.103,105.382,16.103z"/>
	<path fill="#FFFFFF" d="M105.365,20.314c0,0,4.239-0.473,4.303-0.048c0.224,1.448-12.879,1.555-12.643,1.071
		c0.212-0.435,0.582-0.881,0.582-0.881L105.365,20.314z"/>
	<path fill="#010101" d="M100.698,13.255c0.178,0.437-0.033,0.934-0.47,1.112l-0.128,0.051c-0.437,0.177-0.933-0.033-1.109-0.47l0,0
		c-0.178-0.437,0.033-0.934,0.47-1.11l0.128-0.052C100.025,12.609,100.521,12.819,100.698,13.255L100.698,13.255z"/>
	<path fill="#FFFFFF" stroke="#020202" stroke-width="0.5" stroke-miterlimit="10" d="M84.99,26.268c0,0-9.856,2.56-20.009,3.017
		c-6.371,0.288-14.036-0.779-19.777-1.346c0,0,7.105,4.271,16.167,5.071c2.139,0.188,4.667-0.286,7.036-0.575
		C68.406,32.435,74.296,31.713,84.99,26.268z"/>
	<path fill="#3079BD" stroke="#020202" stroke-width="0.5" stroke-miterlimit="10" d="M90.977,20.625c0,0-3.12,17.075-15.011,11.621
		c0,0,7.24-4.238,5.871-10.691L90.977,20.625z"/>
</g>
</svg>
