<?xml version="1.0" encoding="utf-8"?>
<!-- Generator: Adobe Illustrator 16.0.0, SVG Export Plug-In . SVG Version: 6.00 Build 0)  -->
<!DOCTYPE svg PUBLIC "-//W3C//DTD SVG 1.1//EN" "http://www.w3.org/Graphics/SVG/1.1/DTD/svg11.dtd">
<svg version="1.1" id="Layer_1" xmlns="http://www.w3.org/2000/svg" xmlns:xlink="http://www.w3.org/1999/xlink" x="0px" y="0px"
	 width="31.698px" height="12.639px" viewBox="0 0 31.698 12.639" enable-background="new 0 0 31.698 12.639" xml:space="preserve">
<path fill="#1D76BB" stroke="#231F20" stroke-width="0.25" stroke-miterlimit="10" d="M13.196,10.488c0,0,0.696,2.088,0.991,1.9
	s0.414-0.789,0.459-0.914C14.692,11.349,13.304,9.925,13.196,10.488z"/>
<linearGradient id="SVGID_1_" gradientUnits="userSpaceOnUse" x1="14.3379" y1="12.6392" x2="14.3379" y2="10.4058">
	<stop  offset="0" style="stop-color:#BE1B81"/>
	<stop  offset="1" style="stop-color:#2683C6"/>
</linearGradient>
<path fill="url(#SVGID_1_)" stroke="#231F20" stroke-width="0.25" stroke-miterlimit="10" d="M13.28,10.406
	c0,0,1.565,2.471,1.752,2.215c0.188-0.256,0.492-2.152,0.307-2.146C15.153,10.482,13.28,10.406,13.28,10.406z"/>
<linearGradient id="SVGID_2_" gradientUnits="userSpaceOnUse" x1="22.6392" y1="7.7437" x2="22.6392" y2="10.4058">
	<stop  offset="0" style="stop-color:#BE1B81"/>
	<stop  offset="1" style="stop-color:#2683C6"/>
</linearGradient>
<path fill="url(#SVGID_2_)" stroke="#231F20" stroke-width="0.25" stroke-miterlimit="10" d="M20.193,9.472
	c0,0,1.671,1.127,1.807,0.904c0.136-0.221,3.065-2.631,3.086-2.633S23.253,7.716,20.193,9.472z"/>
<linearGradient id="SVGID_3_" gradientUnits="userSpaceOnUse" x1="15.4482" y1="3.6309" x2="15.4482" y2="0.4092">
	<stop  offset="0" style="stop-color:#BE1B81"/>
	<stop  offset="1" style="stop-color:#2683C6"/>
</linearGradient>
<path fill="url(#SVGID_3_)" stroke="#231F20" stroke-width="0.25" stroke-miterlimit="10" d="M12.821,3.123l2.722-2.714
	c0,0,0.246,1.715,2.391,2.881c0,0,0.451,0.162-0.255,0.341"/>
<linearGradient id="SVGID_4_" gradientUnits="userSpaceOnUse" x1="16.042" y1="2.7344" x2="16.042" y2="10.707">
	<stop  offset="0" style="stop-color:#BE1B81"/>
	<stop  offset="1" style="stop-color:#2683C6"/>
</linearGradient>
<path fill="url(#SVGID_4_)" stroke="#231F20" stroke-width="0.25" stroke-miterlimit="10" d="M0.66,5.911
	c0,0,2.064-2.337,12.115-2.791c0,0,5.172,0.363,7.872,1.226c2.7,0.861,4.311,0.998,5.422,1.021c1.112,0.022,4.583-2.541,4.583-2.541
	s0.976-0.204,1.044,0s-1.996,3.676-2.519,3.79c-0.521,0.113,2.541,2.631,2.337,3.855c-0.204,1.227-5.445-2.723-5.445-2.723
	s-2.019-0.408-5.876,1.725c-3.856,2.133-15.2,0.432-15.948-0.498c0,0-3.721-1.475-3.857-2.621c0,0,0.137-0.17,0.341,0.148
	c0.204,0.316,1.293,0.68,1.293,0.68S0.841,6.365,0.66,5.911z"/>
<circle fill="none" stroke="#231F20" stroke-width="0.25" stroke-miterlimit="10" cx="2.832" cy="5.758" r="0.596"/>
<ellipse fill="#231F20" cx="2.832" cy="5.686" rx="0.234" ry="0.251"/>
<path fill="none" stroke="#231F20" stroke-width="0.25" stroke-miterlimit="10" d="M5.288,4.912c0,0,1.696-0.062,1.311,2.296
	c0,0-0.091,0.768-1.265,1.182c0,0-1.472,0.344-1.089,0.584"/>
<path fill="none" stroke="#231F20" stroke-width="0.25" stroke-miterlimit="10" d="M6.456,8.208c0,0,1.021-0.459,4.391-0.299
	c0,0-2.801,1.643-4.19,1.387C6.656,9.296,7.622,8.566,6.456,8.208z"/>
</svg>
