<?xml version="1.0" encoding="utf-8"?>
<!-- Generator: Adobe Illustrator 16.0.0, SVG Export Plug-In . SVG Version: 6.00 Build 0)  -->
<!DOCTYPE svg PUBLIC "-//W3C//DTD SVG 1.1//EN" "http://www.w3.org/Graphics/SVG/1.1/DTD/svg11.dtd">
<svg version="1.1" id="Layer_1" xmlns="http://www.w3.org/2000/svg" xmlns:xlink="http://www.w3.org/1999/xlink" x="0px" y="0px"
	 width="50px" height="50px" viewBox="0 0 50 50" enable-background="new 0 0 50 50" xml:space="preserve">
<path fill="#317ABD" stroke="#030303" stroke-width="0.5" stroke-miterlimit="10" d="M0,38.348c3.711-1.715,6.153-3.02,6.333-3.078
	l20.101-5.295c0,0-0.205-6.361,11.174-8.712c0,0-2.836-4.02-3.08-4.46c-1.85-3.349-12.526-10.721-28.75-6.397L0,11.261"/>
<path fill="#317ABD" stroke="#030303" stroke-width="0.5" stroke-miterlimit="10" d="M37.102,21.262c0,0,9.125,3.494,7.668,6.246
	c-1.455,2.744-21.239,2.83-20.687,1.703C27.291,22.666,37.102,21.262,37.102,21.262z"/>
<path fill="#FFFFFF" d="M37.311,27.639c0,0,6.418-0.719,6.514-0.074c0.342,2.191-19.498,2.354-19.14,1.621
	c0.319-0.656,0.882-1.334,0.882-1.334L37.311,27.639z"/>
<path fill="#020202" d="M30.012,16.95c0.268,0.661-0.051,1.415-0.711,1.684l-0.195,0.077c-0.662,0.268-1.412-0.05-1.68-0.711l0,0
	c-0.268-0.663,0.051-1.415,0.713-1.681l0.193-0.079C28.994,15.972,29.744,16.289,30.012,16.95L30.012,16.95z"/>
<path fill="#317ABD" stroke="#030303" stroke-width="0.5" stroke-miterlimit="10" d="M0,49.453
	c9.296-3.466,12.05-18.494,12.05-18.494L0,32.187"/>
</svg>
