<?xml version="1.0" encoding="utf-8"?>
<!-- Generator: Adobe Illustrator 16.0.0, SVG Export Plug-In . SVG Version: 6.00 Build 0)  -->
<!DOCTYPE svg PUBLIC "-//W3C//DTD SVG 1.1//EN" "http://www.w3.org/Graphics/SVG/1.1/DTD/svg11.dtd">
<svg version="1.1" id="Layer_1" xmlns="http://www.w3.org/2000/svg" xmlns:xlink="http://www.w3.org/1999/xlink" x="0px" y="0px"
	 width="188px" height="96.8px" viewBox="0 0 188 96.8" enable-background="new 0 0 188 96.8" xml:space="preserve">
<g id="Layer_2">
	
		<linearGradient id="SVGID_1_" gradientUnits="userSpaceOnUse" x1="185.8604" y1="593.8296" x2="185.8604" y2="560.2896" gradientTransform="matrix(1 0 0 1 -92 -529.333)">
		<stop  offset="0" style="stop-color:#636060"/>
		<stop  offset="0.1005" style="stop-color:#8B8989"/>
		<stop  offset="0.2394" style="stop-color:#BDBCBC"/>
		<stop  offset="0.361" style="stop-color:#E1E0E0"/>
		<stop  offset="0.4591" style="stop-color:#F7F7F7"/>
		<stop  offset="0.5215" style="stop-color:#FFFFFF"/>
		<stop  offset="0.5811" style="stop-color:#FAFAFA"/>
		<stop  offset="0.6528" style="stop-color:#EBEBEB"/>
		<stop  offset="0.7308" style="stop-color:#D3D3D3"/>
		<stop  offset="0.8131" style="stop-color:#B1B1B1"/>
		<stop  offset="0.899" style="stop-color:#868586"/>
		<stop  offset="0.9866" style="stop-color:#525152"/>
		<stop  offset="1" style="stop-color:#494849"/>
	</linearGradient>
	<path fill="url(#SVGID_1_)" stroke="#000000" stroke-miterlimit="10" d="M129.464,55.189c-8.8,1.5-14.3,2.5-17,3.299
		c-6.1,1.801-51.5,11.201-86,2.1c0,0-3.1-0.398-7.8-1.799c-2.8-0.6-6.7-2.4-9.1-4c-2.5-1.701-7.8-5.201-7.2-7.9
		c-1-4.5,8.5-7.3,11.4-8.1c4-1.2,6.1-1.6,10.4-2.7c5.7-1.4,14.6-2.8,20.5-3.4c7.1-0.8,14.3-1.2,21.4-1.5c0.9,0,1.8-0.1,2.7-0.1
		c0,0,13.5-1,25.5,2.5c0,0,17.7,2.2,34.101,4.8h0.2c13.5,2.2,26.1,4.9,27.6,5.7h0.1c0,0-1.1-0.2,13.101-2.1
		c3.399-0.2,11.899-0.4,15.1,2.9c4.7,5-9.1,7.1-12.5,7.699c0,0-7.399,2.5-16-2.199c0,0-14.1,2.6-26.6,4.699L129.464,55.189z"/>
	<path fill="none" stroke="#000000" stroke-miterlimit="10" d="M43.364,32.789c0,0-0.502,1.623-0.667,2.696"/>
	<path fill="none" stroke="#000000" stroke-miterlimit="10" d="M45.964,32.488c0,0-1.066,2.047-1.372,3.185"/>
	<path fill="none" stroke="#000000" stroke-miterlimit="10" d="M48.464,32.488c0,0-1.034,1.888-1.395,3.042"/>
	<path fill="none" stroke="#000000" stroke-miterlimit="10" d="M50.664,32.388c0,0-0.063,1.63-0.558,2.656"/>
	<path fill="none" stroke="#000000" stroke-miterlimit="10" d="M53.464,42.488"/>
	<path fill="none" stroke="#000000" stroke-miterlimit="10" d="M52.964,31.789c0,0-0.048,1.79-0.532,3"/>
	<path fill="none" stroke="#000000" stroke-miterlimit="10" d="M110.764,25.588"/>
	<path fill="none" stroke="#000000" stroke-miterlimit="10" d="M110.764,48.088"/>
	<path fill="none" stroke="#000000" stroke-miterlimit="10" d="M46.264,63.587c0,0,0.466-1.156,0.924-2.445"/>
	<path fill="none" stroke="#000000" stroke-miterlimit="10" d="M43.564,63.587c0,0,0.726-1.336,1.408-2.76"/>
	<path fill="none" stroke="#000000" stroke-miterlimit="10" d="M41.064,63.289c0,0,0.946-1.262,1.843-2.586"/>
	<path fill="none" stroke="#000000" stroke-miterlimit="10" d="M38.864,63.087c0,0,0.637-1.346,1.425-2.756"/>
	
		<linearGradient id="SVGID_2_" gradientUnits="userSpaceOnUse" x1="160.0645" y1="593.1626" x2="160.0645" y2="624.5123" gradientTransform="matrix(1 0 0 1 -92 -529.333)">
		<stop  offset="0.0108" style="stop-color:#FFFFFF"/>
		<stop  offset="0.1329" style="stop-color:#D6D5D6"/>
		<stop  offset="0.4067" style="stop-color:#6D6D6D"/>
		<stop  offset="0.4987" style="stop-color:#494849"/>
		<stop  offset="0.6657" style="stop-color:#464546"/>
		<stop  offset="0.7683" style="stop-color:#3E3D3E"/>
		<stop  offset="0.8536" style="stop-color:#2F2F2F"/>
		<stop  offset="0.9289" style="stop-color:#1B1B1B"/>
		<stop  offset="0.9978" style="stop-color:#010101"/>
		<stop  offset="1" style="stop-color:#000000"/>
	</linearGradient>
	<path fill="url(#SVGID_2_)" stroke="#000000" stroke-miterlimit="10" d="M55.364,64.587c0,0,12.8,28.5,20.6,30.602
		c0,0-4.3-20.301,4.8-31.301"/>
	
		<linearGradient id="SVGID_3_" gradientUnits="userSpaceOnUse" x1="161.5137" y1="59.8726" x2="161.5137" y2="91.1724" gradientTransform="matrix(1 0 0 -1 -92 91.6143)">
		<stop  offset="0.0108" style="stop-color:#FFFFFF"/>
		<stop  offset="0.1329" style="stop-color:#D6D5D6"/>
		<stop  offset="0.4067" style="stop-color:#6D6D6D"/>
		<stop  offset="0.4987" style="stop-color:#494849"/>
		<stop  offset="0.6657" style="stop-color:#464546"/>
		<stop  offset="0.7683" style="stop-color:#3E3D3E"/>
		<stop  offset="0.8536" style="stop-color:#2F2F2F"/>
		<stop  offset="0.9289" style="stop-color:#1B1B1B"/>
		<stop  offset="0.9978" style="stop-color:#010101"/>
		<stop  offset="1" style="stop-color:#000000"/>
	</linearGradient>
	<path fill="url(#SVGID_3_)" stroke="#000000" stroke-miterlimit="10" d="M82.064,31.388c-9.1-11.1-4.5-30.9-4.5-30.9
		c-7.8,2.1-20.6,31.3-20.6,31.3"/>
	<path fill="none" stroke="#000000" stroke-miterlimit="10" d="M22.264,39.688c0,0-22.9,8.7,0,17.899"/>
</g>
</svg>
