<?xml version="1.0" encoding="utf-8"?>
<!-- Generator: Adobe Illustrator 16.0.0, SVG Export Plug-In . SVG Version: 6.00 Build 0)  -->
<!DOCTYPE svg PUBLIC "-//W3C//DTD SVG 1.1//EN" "http://www.w3.org/Graphics/SVG/1.1/DTD/svg11.dtd">
<svg version="1.1" id="Layer_1" xmlns="http://www.w3.org/2000/svg" xmlns:xlink="http://www.w3.org/1999/xlink" x="0px" y="0px"
	 width="188px" height="96.8px" viewBox="0 0 188 96.8" enable-background="new 0 0 188 96.8" xml:space="preserve">
<g id="Layer_1_1_">
	
		<linearGradient id="SVGID_1_" gradientUnits="userSpaceOnUse" x1="184.7139" y1="598.2144" x2="184.7139" y2="540.498" gradientTransform="matrix(1 0 0 1 -92 -529.333)">
		<stop  offset="0" style="stop-color:#FFFFFF"/>
		<stop  offset="0.0518" style="stop-color:#FBFBFB"/>
		<stop  offset="0.0994" style="stop-color:#F0F0F0"/>
		<stop  offset="0.1453" style="stop-color:#DEDEDE"/>
		<stop  offset="0.1902" style="stop-color:#C4C3C4"/>
		<stop  offset="0.2339" style="stop-color:#A4A2A3"/>
		<stop  offset="0.2634" style="stop-color:#898788"/>
		<stop  offset="0.617" style="stop-color:#494849"/>
		<stop  offset="1" style="stop-color:#000000"/>
	</linearGradient>
	<path fill="url(#SVGID_1_)" stroke="#000000" stroke-miterlimit="10" d="M129.464,55.087c-8.8,1.5-16.899,2.4-19,3.4
		c-5.8,2.6-49.4,10.5-83.8,1.5c0,0-10-1.799-11.4-5.1c0,0-0.5-1.801,6.6,0c7.1,1.801-1.4-3.5-10-1.801c-5.2,1-11.1-6.599-11.1-6.599
		s21.6-15.4,68.2-15.5c0,0,9.5-21,19.2-19.8c0,0-5.1,17.9,6.4,22.4c0,0,17.699,2.2,34.1,4.8h0.2c13.5,2.2,26.1,4.9,27.6,5.7h0.101
		c0,0,13.8-18.3,28.1-20.2l-13.8,25.5c0,0-1.3,4.6,6,18.5c0,0-4.3,6.9-20.5-17.6c0,0-14.101,2.6-26.601,4.699L129.464,55.087z"/>
	
		<linearGradient id="SVGID_2_" gradientUnits="userSpaceOnUse" x1="160.3994" y1="584.7212" x2="160.3994" y2="616.8208" gradientTransform="matrix(1 0 0 1 -92 -529.333)">
		<stop  offset="0.0376" style="stop-color:#B9B8B9"/>
		<stop  offset="0.0848" style="stop-color:#ADACAD"/>
		<stop  offset="0.1785" style="stop-color:#9D9B9C"/>
		<stop  offset="0.2953" style="stop-color:#919091"/>
		<stop  offset="0.4591" style="stop-color:#8B898A"/>
		<stop  offset="0.914" style="stop-color:#898788"/>
	</linearGradient>
	<path fill="url(#SVGID_2_)" stroke="#000000" stroke-miterlimit="10" d="M56.264,57.789c0,0,12,27.6,19.8,29.699
		c0,0-4.9-19.9,4.3-30.9c0,0,0.3-0.1,0.1-1.199"/>
	<path fill="none" stroke="#000000" stroke-miterlimit="10" d="M42.664,42.388c0,0-1.5,17.9-1,18.301"/>
	<path fill="none" stroke="#000000" stroke-miterlimit="10" d="M45.264,41.488c0,0-2.3,18.5-1.7,19.201"/>
	<path fill="none" stroke="#000000" stroke-miterlimit="10" d="M47.764,41.488c0,0-3.4,18.5-2.5,18.3"/>
	<path fill="none" stroke="#000000" stroke-miterlimit="10" d="M49.464,42.888c0,0-1.3,15.6-2.5,17.301"/>
	<path fill="none" stroke="#000000" stroke-miterlimit="10" d="M53.464,42.388"/>
	<path fill="none" stroke="#000000" stroke-miterlimit="10" d="M51.964,41.888c0,0-1.3,15.6-2.5,17.301"/>
	<circle cx="14.064" cy="46.088" r="1.3"/>
	<path fill="none" stroke="#000000" stroke-miterlimit="10" d="M110.764,25.488"/>
	<path fill="none" stroke="#000000" stroke-miterlimit="10" d="M110.764,47.988"/>
</g>
</svg>
