<?xml version="1.0" encoding="utf-8"?>
<!-- Generator: Adobe Illustrator 16.0.0, SVG Export Plug-In . SVG Version: 6.00 Build 0)  -->
<!DOCTYPE svg PUBLIC "-//W3C//DTD SVG 1.1//EN" "http://www.w3.org/Graphics/SVG/1.1/DTD/svg11.dtd">
<svg version="1.1" id="Layer_3" xmlns="http://www.w3.org/2000/svg" xmlns:xlink="http://www.w3.org/1999/xlink" x="0px" y="0px"
	 width="188px" height="96.8px" viewBox="0 0 188 96.8" enable-background="new 0 0 188 96.8" xml:space="preserve">
<linearGradient id="SVGID_1_" gradientUnits="userSpaceOnUse" x1="186" y1="601.2319" x2="186" y2="543.5146" gradientTransform="matrix(1 0 0 -1 -92 627.96)">
	<stop  offset="0" style="stop-color:#FFFFFF"/>
	<stop  offset="0.0518" style="stop-color:#FBFBFB"/>
	<stop  offset="0.0994" style="stop-color:#F0F0F0"/>
	<stop  offset="0.1453" style="stop-color:#DEDEDE"/>
	<stop  offset="0.1902" style="stop-color:#C4C3C4"/>
	<stop  offset="0.2339" style="stop-color:#A4A2A3"/>
	<stop  offset="0.2634" style="stop-color:#898788"/>
	<stop  offset="0.617" style="stop-color:#494849"/>
	<stop  offset="1" style="stop-color:#000000"/>
</linearGradient>
<path fill="url(#SVGID_1_)" stroke="#000000" stroke-miterlimit="10" d="M131.05,40.622c12.5,2.1,26.601,4.699,26.601,4.699
	c16.2-24.5,20.5-17.6,20.5-17.6c-7.3,13.9-6,18.5-6,18.5l13.8,25.5c-14.3-1.9-28.1-20.201-28.1-20.201h-0.101
	c-1.5,0.801-14.1,3.5-27.6,5.701h-0.2c-16.4,2.6-34.1,4.799-34.1,4.799c-11.5,4.5-6.4,22.4-6.4,22.4
	c-9.7,1.201-19.2-19.799-19.2-19.799c-46.6-0.102-68.2-15.501-68.2-15.501s5.9-7.599,11.1-6.599c8.6,1.699,17.1-3.602,10-1.801
	c-7.1,1.801-6.6,0-6.6,0c1.4-3.301,11.4-5.1,11.4-5.1c34.4-9,78-1.1,83.8,1.5c2.101,1,10.2,1.9,19,3.4L131.05,40.622z"/>
<linearGradient id="SVGID_2_" gradientUnits="userSpaceOnUse" x1="166.5195" y1="620.9976" x2="166.5195" y2="631.5991" gradientTransform="matrix(1 0 0 1 -92 -580.0322)">
	<stop  offset="0.0376" style="stop-color:#FFFFFF"/>
	<stop  offset="0.4591" style="stop-color:#8B898A"/>
	<stop  offset="0.914" style="stop-color:#898788"/>
</linearGradient>
<path fill="url(#SVGID_2_)" stroke="#000000" stroke-miterlimit="10" d="M62.384,42.036c0,0,5.857,8.596,13.657,9.531
	c0,0,10.587-0.035,10-0.583c-1.14-1.064-5.631-6.248,0.443-9.484c0,0,0.3-0.044,0.1-0.534"/>
<path fill="none" stroke="#000000" stroke-miterlimit="10" d="M42.95,34.713c-0.5,0.4,1,18.301,1,18.301"/>
<path fill="none" stroke="#000000" stroke-miterlimit="10" d="M44.85,34.713c-0.6,0.701,1.7,19.202,1.7,19.202"/>
<path fill="none" stroke="#000000" stroke-miterlimit="10" d="M46.55,35.613c-0.9-0.199,2.5,18.301,2.5,18.301"/>
<path fill="none" stroke="#000000" stroke-miterlimit="10" d="M48.25,35.213c1.2,1.701,2.5,17.301,2.5,17.301"/>
<path fill="none" stroke="#000000" stroke-miterlimit="10" d="M54.75,53.014"/>
<path fill="none" stroke="#000000" stroke-miterlimit="10" d="M50.75,36.213c1.2,1.701,2.5,17.301,2.5,17.301"/>
<path fill="none" stroke="#000000" stroke-miterlimit="10" d="M112.05,69.915"/>
<path fill="none" stroke="#000000" stroke-miterlimit="10" d="M112.05,47.414"/>
<line fill="none" stroke="#000000" stroke-miterlimit="10" x1="14.05" y1="47.388" x2="18" y2="52.388"/>
<line fill="none" stroke="#000000" stroke-miterlimit="10" x1="12.764" y1="51.838" x2="18" y2="48.014"/>
</svg>
